<svg width="155" height="46" viewBox="0 0 155 46" fill="none" xmlns="http://www.w3.org/2000/svg">
<path d="M51.5 16.2891H55.5884V18.1608C56.2847 17.3921 57.0556 16.8181 57.9011 16.4388C58.7566 16.0595 59.6867 15.8698 60.6914 15.8698C61.706 15.8698 62.6212 16.1194 63.4368 16.6185C64.2525 17.1176 64.909 17.8464 65.4064 18.8047C66.053 17.8464 66.8438 17.1176 67.7789 16.6185C68.7239 16.1194 69.7534 15.8698 70.8675 15.8698C72.0214 15.8698 73.036 16.1393 73.9114 16.6784C74.7868 17.2174 75.4135 17.9212 75.7915 18.7897C76.1794 19.6582 76.3734 21.0707 76.3734 23.0273V32.5807H72.2701V24.3151C72.2701 22.4683 72.0413 21.2205 71.5837 20.5716C71.1262 19.9128 70.4398 19.5833 69.5246 19.5833C68.8283 19.5833 68.2016 19.783 67.6446 20.1823C67.0975 20.5816 66.6896 21.1356 66.421 21.8444C66.1525 22.5432 66.0182 23.6712 66.0182 25.2285V32.5807H61.9149V24.6895C61.9149 23.232 61.8055 22.1788 61.5866 21.5299C61.3777 20.8711 61.0594 20.3819 60.6317 20.0625C60.2039 19.7431 59.6867 19.5833 59.0799 19.5833C58.4035 19.5833 57.7867 19.788 57.2297 20.1973C56.6826 20.5966 56.2698 21.1606 55.9912 21.8893C55.7227 22.6181 55.5884 23.7661 55.5884 25.3333V32.5807H51.5V16.2891Z" fill="#D7B399"/>
<path d="M92.2643 16.2891H96.3228V32.5807H92.2643V30.8587C91.4685 31.6174 90.6678 32.1664 89.862 32.5059C89.0662 32.8353 88.2008 33 87.2658 33C85.1669 33 83.3515 32.1864 81.8196 30.5592C80.2877 28.9221 79.5217 26.8906 79.5217 24.4648C79.5217 21.9492 80.2628 19.8878 81.745 18.2806C83.2271 16.6734 85.0276 15.8698 87.1464 15.8698C88.1212 15.8698 89.0364 16.0545 89.8919 16.4238C90.7473 16.7932 91.5381 17.3472 92.2643 18.0859V16.2891ZM87.982 19.6432C86.7186 19.6432 85.6692 20.0924 84.8336 20.9909C83.998 21.8793 83.5803 23.0224 83.5803 24.4199C83.5803 25.8275 84.003 26.9855 84.8485 27.8939C85.704 28.8023 86.7535 29.2565 87.9969 29.2565C89.2801 29.2565 90.3445 28.8123 91.19 27.9238C92.0355 27.0254 92.4583 25.8524 92.4583 24.4049C92.4583 22.9874 92.0355 21.8394 91.19 20.9609C90.3445 20.0825 89.2751 19.6432 87.982 19.6432Z" fill="#D7B399"/>
<path d="M99.4861 16.2891H102.978V18.3405C103.356 17.5319 103.858 16.918 104.485 16.4987C105.111 16.0794 105.798 15.8698 106.544 15.8698C107.071 15.8698 107.623 16.0095 108.2 16.2891L106.932 19.8079C106.454 19.5684 106.061 19.4486 105.753 19.4486C105.126 19.4486 104.594 19.8379 104.156 20.6165C103.729 21.3952 103.515 22.9225 103.515 25.1986L103.53 25.9922V32.5807H99.4861V16.2891Z" fill="#D7B399"/>
<path d="M110.259 10H114.333V23.0124L120.331 16.2891H125.434L118.451 24.1055L126.284 32.5807H121.226L114.333 25.0788V32.5807H110.259V10Z" fill="#D7B399"/>
<path d="M144.219 25.6178H131.134C131.323 26.7758 131.825 27.6992 132.641 28.388C133.466 29.0668 134.516 29.4062 135.789 29.4062C137.311 29.4062 138.619 28.8722 139.713 27.804L143.145 29.4212C142.29 30.6391 141.265 31.5425 140.071 32.1315C138.878 32.7105 137.46 33 135.819 33C133.272 33 131.198 32.1964 129.597 30.5892C127.995 28.972 127.194 26.9505 127.194 24.5247C127.194 22.0391 127.99 19.9776 129.582 18.3405C131.183 16.6934 133.188 15.8698 135.595 15.8698C138.152 15.8698 140.231 16.6934 141.832 18.3405C143.434 19.9776 144.234 22.1439 144.234 24.8392L144.219 25.6178ZM140.131 22.3984C139.862 21.49 139.33 20.7513 138.534 20.1823C137.749 19.6133 136.833 19.3288 135.789 19.3288C134.655 19.3288 133.66 19.6482 132.805 20.2871C132.268 20.6864 131.77 21.3902 131.313 22.3984H140.131Z" fill="#D7B399"/>
<path d="M148.024 10.2845H152.083V16.2891H154.5V19.8079H152.083V32.5807H148.024V19.8079H145.935V16.2891H148.024V10.2845Z" fill="#D7B399"/>
<path fill-rule="evenodd" clip-rule="evenodd" d="M20.5689 2.64372C21.2143 1.27432 20.1597 -0.264088 18.6765 0.0384977C8.30415 2.15442 0.5 11.3291 0.5 22.3265C0.5 26.1798 1.45812 29.8094 3.14911 32.9899C3.85979 34.3266 5.71702 34.1605 6.36235 32.791L20.5689 2.64372ZM9.39923 38.439C9.00772 39.265 9.22082 40.2591 9.96241 40.7935C13.7001 43.4871 18.2884 45.0739 23.2474 45.0739C28.4548 45.0739 33.2536 43.3241 37.0877 40.3803C37.797 39.8358 37.99 38.8639 37.6056 38.0565L35.0912 32.7744C34.7596 32.0778 34.0569 31.634 33.2854 31.634H13.8899C13.1172 31.634 12.4136 32.0792 12.0826 32.7774L9.39923 38.439ZM40.4488 32.18C41.099 33.578 42.9979 33.7247 43.6775 32.3408C45.1615 29.3191 45.9948 25.9201 45.9948 22.3265C45.9948 11.6612 38.6549 2.71026 28.7509 0.249384C27.2548 -0.122355 26.1432 1.4243 26.7933 2.82207L40.4488 32.18ZM18.0665 26.7109C16.5985 26.7109 15.6307 25.1819 16.2589 23.855L21.8372 12.0725C22.5613 10.5431 24.7393 10.5481 25.4564 12.0808L30.9685 23.8634C31.5889 25.1895 30.621 26.7109 29.157 26.7109H18.0665Z" fill="#D7B399"/>
</svg>
